<mxfile host="65bd71144e">
    <diagram id="NphrKFYvAoYio6cOoJtj" name="Page-1">
        <mxGraphModel dx="1456" dy="713" grid="1" gridSize="10" guides="1" tooltips="1" connect="1" arrows="1" fold="1" page="1" pageScale="1" pageWidth="827" pageHeight="1169" math="0" shadow="0">
            <root>
                <mxCell id="0"/>
                <mxCell id="1" parent="0"/>
                <mxCell id="13" value="" style="whiteSpace=wrap;html=1;aspect=fixed;" parent="1" vertex="1">
                    <mxGeometry x="70" y="30" width="650" height="650" as="geometry"/>
                </mxCell>
                <mxCell id="14" value="" style="rounded=1;whiteSpace=wrap;html=1;align=left;" parent="1" vertex="1">
                    <mxGeometry x="80" y="40" width="620" height="60" as="geometry"/>
                </mxCell>
                <mxCell id="15" value="logo" style="ellipse;whiteSpace=wrap;html=1;aspect=fixed;" parent="1" vertex="1">
                    <mxGeometry x="90" y="55" width="30" height="30" as="geometry"/>
                </mxCell>
                <mxCell id="20" value="footer" style="rounded=0;whiteSpace=wrap;html=1;" parent="1" vertex="1">
                    <mxGeometry x="80" y="630" width="610" height="30" as="geometry"/>
                </mxCell>
                <mxCell id="21" value="connexion&lt;br&gt;/&lt;br&gt;Deconnexion" style="rounded=1;whiteSpace=wrap;html=1;" parent="1" vertex="1">
                    <mxGeometry x="610" y="47.5" width="70" height="45" as="geometry"/>
                </mxCell>
                <mxCell id="22" value="inscription&lt;br&gt;/&lt;br&gt;profil" style="rounded=1;whiteSpace=wrap;html=1;" parent="1" vertex="1">
                    <mxGeometry x="510" y="45" width="90" height="50" as="geometry"/>
                </mxCell>
                <mxCell id="23" value="nom du site" style="rounded=1;whiteSpace=wrap;html=1;align=left;" parent="1" vertex="1">
                    <mxGeometry x="130" y="47.5" width="200" height="42.5" as="geometry"/>
                </mxCell>
                <mxCell id="26" value="" style="rounded=1;whiteSpace=wrap;html=1;" parent="1" vertex="1">
                    <mxGeometry x="80" y="170" width="620" height="440" as="geometry"/>
                </mxCell>
                <mxCell id="27" value="Titre de l'event" style="rounded=1;whiteSpace=wrap;html=1;shadow=0;" parent="1" vertex="1">
                    <mxGeometry x="260" y="120" width="260" height="40" as="geometry"/>
                </mxCell>
                <mxCell id="28" value="Info de l'event : lieu, date, nom de l'auteur, description" style="rounded=0;whiteSpace=wrap;html=1;shadow=0;" parent="1" vertex="1">
                    <mxGeometry x="115" y="190" width="550" height="60" as="geometry"/>
                </mxCell>
                <mxCell id="29" value="" style="rounded=1;whiteSpace=wrap;html=1;shadow=0;" parent="1" vertex="1">
                    <mxGeometry x="110" y="260" width="120" height="320" as="geometry"/>
                </mxCell>
                <mxCell id="30" value="" style="rounded=1;whiteSpace=wrap;html=1;shadow=0;" parent="1" vertex="1">
                    <mxGeometry x="245" y="265" width="410" height="320" as="geometry"/>
                </mxCell>
                <mxCell id="31" value="barre de recherche inviter" style="text;html=1;strokeColor=none;fillColor=none;align=center;verticalAlign=middle;whiteSpace=wrap;rounded=0;shadow=0;" parent="1" vertex="1">
                    <mxGeometry x="120" y="280" width="100" height="30" as="geometry"/>
                </mxCell>
                <mxCell id="32" value="" style="whiteSpace=wrap;html=1;aspect=fixed;shadow=0;" parent="1" vertex="1">
                    <mxGeometry x="290" y="280" width="80" height="80" as="geometry"/>
                </mxCell>
                <mxCell id="50" value="&lt;font style=&quot;font-size: 10px;&quot;&gt;nom inviter&lt;/font&gt;" style="rounded=0;whiteSpace=wrap;html=1;shadow=0;" parent="1" vertex="1">
                    <mxGeometry x="300" y="285" width="60" height="20" as="geometry"/>
                </mxCell>
                <mxCell id="55" value="barre de recherche besoin" style="text;html=1;strokeColor=none;fillColor=none;align=center;verticalAlign=middle;whiteSpace=wrap;rounded=0;shadow=0;" parent="1" vertex="1">
                    <mxGeometry x="120" y="320" width="100" height="30" as="geometry"/>
                </mxCell>
                <mxCell id="56" value="créé besoin" style="ellipse;whiteSpace=wrap;html=1;shadow=0;fontSize=10;" parent="1" vertex="1">
                    <mxGeometry x="120" y="360" width="90" height="20" as="geometry"/>
                </mxCell>
                <mxCell id="57" value="" style="rounded=1;whiteSpace=wrap;html=1;shadow=0;fontSize=10;" parent="1" vertex="1">
                    <mxGeometry x="120" y="395" width="100" height="175" as="geometry"/>
                </mxCell>
                <mxCell id="58" value="&lt;span style=&quot;font-size: 10px;&quot;&gt;Liste besoin&amp;nbsp;&lt;/span&gt;" style="rounded=0;whiteSpace=wrap;html=1;shadow=0;" parent="1" vertex="1">
                    <mxGeometry x="135" y="410" width="60" height="20" as="geometry"/>
                </mxCell>
            </root>
        </mxGraphModel>
    </diagram>
</mxfile>